<svg xmlns="http://www.w3.org/2000/svg" viewBox="0 0 128 128" role="img" aria-label="wy">
  <ellipse cx="64" cy="92" rx="48" ry="10" fill="#000" opacity="0.08"/>
  <ellipse cx="62" cy="68" rx="42" ry="30" fill="#8B9DAF"/>
  <ellipse cx="62" cy="70" rx="38" ry="24" fill="#A8B8C8"/>
  <ellipse cx="38" cy="62" rx="14" ry="10" fill="#8B9DAF" transform="rotate(-20 38 62)"/>
  <ellipse cx="86" cy="62" rx="14" ry="10" fill="#8B9DAF" transform="rotate(20 86 62)"/>
  <circle cx="88" cy="48" r="20" fill="#9AABB8"/>
  <circle cx="96" cy="44" r="5" fill="#2D3436"/>
  <circle cx="98" cy="42" r="1.5" fill="#FFF"/>
  <circle cx="102" cy="50" r="3" fill="#2D3436"/>
  <path d="M104 52 Q112 54 108 58 Q104 56 104 52" fill="#6B7B8A"/>
  <path d="M48 78 L38 88 L48 84 Z" fill="#7A8A98"/>
  <path d="M76 78 L86 88 L76 84 Z" fill="#7A8A98"/>
  <ellipse cx="62" cy="82" rx="18" ry="8" fill="#C5D0DA" opacity="0.6"/>
</svg>
