<svg xmlns="http://www.w3.org/2000/svg" viewBox="0 0 128 128" role="img" aria-label="(‹">
  <ellipse cx="64" cy="100" rx="34" ry="8" fill="#000" opacity="0.08"/>
  <ellipse cx="64" cy="68" rx="30" ry="44" fill="#27AE60"/>
  <ellipse cx="64" cy="66" rx="26" ry="40" fill="#2ECC71"/>
  <ellipse cx="58" cy="52" rx="8" ry="12" fill="#58D68D" opacity="0.4"/>
  <path d="M64 20 C60 14 56 10 64 6 C72 10 68 14 64 20 Z" fill="#6E2C00"/>
  <path d="M64 18 C74 12 86 16 90 26 C82 22 72 20 64 24 Z" fill="#27AE60"/>
  <ellipse cx="64" cy="68" rx="18" ry="28" fill="#F39C12" opacity="0.85"/>
  <ellipse cx="64" cy="70" rx="14" ry="22" fill="#F5B041"/>
  <circle cx="58" cy="64" r="2.5" fill="#2C3E50" opacity="0.7"/>
  <circle cx="68" cy="62" r="2" fill="#2C3E50" opacity="0.65"/>
  <circle cx="62" cy="74" r="2" fill="#2C3E50" opacity="0.6"/>
  <circle cx="70" cy="76" r="2.5" fill="#2C3E50" opacity="0.65"/>
  <circle cx="56" cy="72" r="1.8" fill="#2C3E50" opacity="0.55"/>
  <circle cx="66" cy="68" r="1.5" fill="#2C3E50" opacity="0.5"/>
</svg>
