<svg xmlns="http://www.w3.org/2000/svg" viewBox="0 0 128 128" role="img" aria-label="¾┤">
  <ellipse cx="64" cy="98" rx="36" ry="8" fill="#000" opacity="0.08"/>
  <circle cx="64" cy="68" r="40" fill="#C0392B"/>
  <circle cx="64" cy="68" r="36" fill="#E74C3C"/>
  <circle cx="54" cy="58" r="8" fill="#FF6B6B" opacity="0.35"/>
  <circle cx="74" cy="62" r="6" fill="#FF6B6B" opacity="0.25"/>
  <circle cx="60" cy="78" r="5" fill="#C0392B" opacity="0.4"/>
  <circle cx="72" cy="74" r="4" fill="#C0392B" opacity="0.35"/>
  <circle cx="50" cy="72" r="4" fill="#C0392B" opacity="0.3"/>
  <g fill="#2ECC71">
    <path d="M64 22 L58 34 L52 28 L54 38 L44 36 L50 44 L40 48 L50 50 L48 58 L58 54 L64 62 L70 54 L80 58 L78 50 L88 48 L78 44 L84 36 L74 38 L76 28 L70 34 Z"/>
  </g>
  <g fill="#27AE60">
    <path d="M64 26 L60 36 L56 32 L58 40 L50 38 L54 44 L48 46 L54 48 L52 54 L60 52 L64 58 L68 52 L76 54 L74 48 L80 46 L74 44 L78 38 L70 40 L72 32 L68 36 Z"/>
  </g>
  <ellipse cx="64" cy="68" rx="28" ry="26" fill="none" stroke="#C0392B" stroke-width="1.5" opacity="0.3"/>
  <circle cx="58" cy="66" r="3" fill="#FF4757" opacity="0.6"/>
  <circle cx="68" cy="64" r="2.5" fill="#FF4757" opacity="0.5"/>
  <circle cx="64" cy="74" r="2.5" fill="#FF4757" opacity="0.5"/>
  <circle cx="70" cy="72" r="2" fill="#FF4757" opacity="0.45"/>
  <circle cx="54" cy="70" r="2" fill="#FF4757" opacity="0.45"/>
</svg>
